<?xml version="1.0" standalone="no"?>
<!DOCTYPE svg PUBLIC "-//W3C//DTD SVG 20010904//EN"
 "http://www.w3.org/TR/2001/REC-SVG-20010904/DTD/svg10.dtd">
<svg version="1.0" xmlns="http://www.w3.org/2000/svg"
 width="501.000000pt" height="501.000000pt" viewBox="0 0 501.000000 501.000000"
 preserveAspectRatio="xMidYMid meet">
<metadata>
Created by potrace 1.11, written by Peter Selinger 2001-2013
</metadata>
<g transform="translate(0.000000,501.000000) scale(0.100000,-0.100000)"
fill="#000000" stroke="none">
<path d="M2416 4975 c-21 -16 -32 -50 -40 -125 -4 -36 -13 -123 -21 -195 -7
-71 -17 -161 -20 -200 -19 -204 -47 -245 -250 -356 -310 -171 -501 -322 -624
-496 -171 -240 -234 -441 -198 -631 20 -106 54 -183 136 -307 78 -119 131
-175 201 -210 73 -37 284 -83 415 -91 100 -6 122 -4 220 20 142 35 141 35 155
26 9 -6 9 -20 2 -61 -6 -30 -13 -97 -17 -149 -7 -126 -14 -188 -31 -289 -8
-46 -14 -151 -14 -233 0 -145 1 -150 25 -173 18 -19 35 -25 65 -25 59 0 65 17
85 245 3 33 8 76 10 95 2 19 7 58 9 85 14 139 31 291 41 362 5 35 45 164 70
226 19 46 43 17 195 -236 83 -138 185 -294 225 -344 40 -51 79 -109 85 -129
14 -42 9 -102 -19 -234 -21 -101 -29 -186 -46 -525 -7 -122 -23 -227 -60 -385
-22 -96 -24 -122 -22 -305 3 -207 7 -225 50 -272 23 -25 70 -30 111 -12 31 14
54 68 61 144 3 33 8 74 10 90 2 17 6 62 10 100 4 39 8 80 10 93 8 47 15 247
20 522 3 157 7 299 9 315 2 17 7 62 11 100 8 84 41 249 54 273 5 9 21 28 35
41 38 36 34 60 -14 78 -22 9 -40 21 -40 28 0 6 9 58 19 116 11 57 22 122 25
144 11 69 43 251 91 510 97 531 121 701 131 942 6 134 5 155 -10 178 -14 22
-24 26 -54 23 -51 -4 -59 -26 -66 -188 -6 -137 -9 -160 -26 -240 -10 -47 -87
-516 -96 -585 -3 -22 -19 -103 -36 -180 -40 -186 -42 -198 -53 -330 -6 -77
-46 -265 -56 -265 -4 0 -16 12 -27 27 -38 55 -332 610 -332 627 0 9 12 42 26
73 20 42 25 65 21 95 -8 61 -40 87 -124 101 -38 7 -77 18 -86 26 -20 16 -21
83 -3 186 15 84 12 355 -4 384 -24 46 -111 16 -145 -49 -17 -33 -41 -176 -51
-310 -4 -52 -9 -99 -9 -105 -1 -5 -3 -22 -3 -36 -3 -51 -30 -67 -242 -140
-188 -65 -213 -72 -305 -76 -86 -4 -108 -2 -157 17 -72 27 -139 97 -159 167
-27 97 -7 255 48 371 67 143 260 346 487 515 74 54 81 57 93 41 7 -10 13 -33
13 -51 0 -49 38 -85 82 -77 50 10 96 34 118 61 10 14 33 68 50 121 18 53 38
107 46 120 19 29 88 72 116 72 63 0 137 66 123 111 -7 22 -23 28 -119 38 -80
9 -117 26 -137 63 -12 22 -10 63 11 223 30 239 22 390 -23 420 -25 16 -58 16
-81 0z"/>
</g>
</svg>
